<svg xmlns="http://www.w3.org/2000/svg" viewBox="0 0 589.08 143.68"><defs><style>.cls-1{fill:#fff;}</style></defs><title>white</title><g id="Layer_2" data-name="Layer 2"><g id="LOGO"><path class="cls-1" d="M0,0V143.68H589.08V0ZM72.27,122.81,57.59,98.48H40.31v24.33H16.69V24.89H64.07c19.87,0,34.85,15.41,34.85,36.72,0,14.11-6.91,26.06-17.42,31.68l20.16,29.52Zm81.5,1.73c-30.67,0-43.49-20.74-43.49-36h23.47s1.87,15.55,21.31,15.55c10.51,0,14.4-4.46,14.4-8.64,0-6.19-8.21-8.35-17.28-10.51-14.69-3.46-40.46-8.93-40.46-30.67,0-17.86,17.57-31.1,39.89-31.1,25.49,0,39,17.42,39,32.69H167.17c0-4.9-5.76-11.52-15.84-11.52-7.06,0-15.7,3.17-15.7,8.78,0,4.75,6.48,6.62,20.3,10.22,15.41,4,37.15,9.22,37.15,30.81C193.09,112.88,176.67,124.54,153.78,124.54ZM293.6,46.78H258.9v76H235v-76h-34.7V24.89H293.6Zm91.15,76h-75V24.89h23.62v76h51.41Zm55.15,1.73c-30.67,0-43.49-20.74-43.49-36h23.47s1.87,15.55,21.31,15.55c10.51,0,14.4-4.46,14.4-8.64,0-6.19-8.21-8.35-17.28-10.51-14.69-3.46-40.46-8.93-40.46-30.67,0-17.86,17.57-31.1,39.89-31.1,25.49,0,39,17.42,39,32.69H453.29c0-4.9-5.76-11.52-15.84-11.52-7.06,0-15.7,3.17-15.7,8.78,0,4.75,6.48,6.62,20.3,10.22,15.41,4,37.15,9.22,37.15,30.81C479.21,112.88,462.8,124.54,439.9,124.54Zm95.61,0c-30.67,0-43.49-20.74-43.49-36H515.5s1.87,15.55,21.31,15.55c10.51,0,14.4-4.46,14.4-8.64,0-6.19-8.21-8.35-17.28-10.51-14.69-3.46-40.46-8.93-40.46-30.67,0-17.86,17.57-31.1,39.89-31.1,25.49,0,39,17.42,39,32.69H548.91c0-4.9-5.76-11.52-15.84-11.52-7.06,0-15.7,3.17-15.7,8.78,0,4.75,6.48,6.62,20.3,10.22,15.41,4,37.15,9.22,37.15,30.81C574.83,112.88,558.41,124.54,535.52,124.54Z"/><path class="cls-1" d="M60.75,46.78H40.31V76.59h20.3a14.78,14.78,0,0,0,14.54-15C75.15,53.55,68.67,46.78,60.75,46.78Z"/></g></g></svg>